<svg xmlns="http://www.w3.org/2000/svg" xmlns:xlink="http://www.w3.org/1999/xlink" width="205.349" height="98" viewBox="0 0 205.349 98">
  <defs>
    <clipPath id="clip-path">
      <rect id="Rectangle_3" data-name="Rectangle 3" width="205.349" height="98" transform="translate(0 0)" fill="none"/>
    </clipPath>
  </defs>
  <g id="Groupe_1" data-name="Groupe 1" transform="translate(0 0)" clip-path="url(#clip-path)">
    <path id="Tracé_2" data-name="Tracé 2" d="M2.877,96.151c-.008-1.145,1.052-1.884,2.739-1.9a2.727,2.727,0,0,1,2.549,1.2l-.336.112a2.33,2.33,0,0,0-2.212-1.04c-1.457.011-2.372.641-2.364,1.626s1.013,1.6,2.59,1.589a2.518,2.518,0,0,0,2.463-1.279l.352.093A2.885,2.885,0,0,1,5.847,98c-1.806.013-2.961-.7-2.97-1.849" fill="#fff"/>
    <path id="Tracé_3" data-name="Tracé 3" d="M15.539,96.056c-.008-1.114,1.212-1.884,3.018-1.9s3.04.739,3.048,1.853-1.205,1.88-3.02,1.894-3.038-.734-3.047-1.849m5.689-.042c-.007-.955-1.083-1.6-2.668-1.588s-2.651.671-2.645,1.627,1.084,1.6,2.668,1.588,2.651-.672,2.645-1.627" fill="#fff"/>
    <path id="Tracé_4" data-name="Tracé 4" d="M28.515,95.962c-.008-1.145,1.052-1.884,2.739-1.9a2.73,2.73,0,0,1,2.549,1.2l-.337.112a2.325,2.325,0,0,0-2.211-1.04c-1.455.011-2.371.641-2.364,1.626s1.015,1.6,2.591,1.589a2.515,2.515,0,0,0,2.462-1.279l.353.093a2.886,2.886,0,0,1-2.813,1.449c-1.806.013-2.961-.7-2.97-1.849" fill="#fff"/>
    <path id="Tracé_5" data-name="Tracé 5" d="M41.229,94.117l.375,0,.013,1.677h.005l3.181-1.7.606-.005-2.682,1.428,2.76,2.07-.517,0-2.537-1.912-.814.434.012,1.5-.376,0Z" fill="#fff"/>
    <path id="Tracé_6" data-name="Tracé 6" d="M54.077,94.29l-2.185.016v-.268L56.641,94l0,.268-2.19.016.024,3.23-.376,0Z" fill="#fff"/>
    <path id="Tracé_7" data-name="Tracé 7" d="M64.776,93.945l.439,0,2.428,3.48-.4,0-.626-.875-3.225.023-.606.885-.4,0Zm1.67,2.341L65,94.2h-.012l-1.415,2.109Z" fill="#fff"/>
    <rect id="Rectangle_1" data-name="Rectangle 1" width="0.376" height="3.498" transform="matrix(1, -0.007, 0.007, 1, 74.367, 93.873)" fill="#fff"/>
    <path id="Tracé_8" data-name="Tracé 8" d="M81.774,93.819l.376,0,.023,3.234,3.06-.022,0,.263-3.436.026Z" fill="#fff"/>
    <path id="Tracé_9" data-name="Tracé 9" d="M100.605,93.68l4.316-.031v.267l-3.946.03.009,1.283,3.69-.027,0,.264-3.692.027L101,96.911l4.01-.03,0,.264-4.381.032Z" fill="#fff"/>
    <path id="Tracé_10" data-name="Tracé 10" d="M113.751,95.275,111.6,93.6l.519,0,1.907,1.5,1.918-1.526.511,0-2.146,1.708,2.229,1.79-.5,0-2.005-1.607-1.954,1.636-.505,0Z" fill="#fff"/>
    <path id="Tracé_11" data-name="Tracé 11" d="M123.259,93.514l3.135-.023c1-.007,1.579.407,1.584,1.053s-.574,1.064-1.57,1.072l-2.759.019.011,1.374-.376,0Zm3.11,1.833c.792-.005,1.236-.318,1.234-.8s-.453-.793-1.246-.788l-2.72.02.012,1.588Z" fill="#fff"/>
    <path id="Tracé_12" data-name="Tracé 12" d="M134.785,93.429,139.1,93.4v.267l-3.946.03.009,1.283,3.69-.027,0,.264-3.692.027.011,1.418,4.01-.028,0,.264-4.381.031Z" fill="#fff"/>
    <path id="Tracé_13" data-name="Tracé 13" d="M149.856,96.428l-.292-.571a.851.851,0,0,0-.816-.527l-2.35.018.012,1.494-.376,0-.026-3.5,3.205-.024c.939-.007,1.586.387,1.591.978,0,.539-.548.92-1.4.966v.005a1.067,1.067,0,0,1,.548.563l.259.512a.432.432,0,0,0,.41.3.469.469,0,0,0,.383-.207l.211.174a.813.813,0,0,1-.637.294.75.75,0,0,1-.724-.482m-.656-1.37c.722-.005,1.224-.307,1.22-.739s-.509-.734-1.231-.729l-2.81.022.011,1.467Z" fill="#fff"/>
    <rect id="Rectangle_2" data-name="Rectangle 2" width="0.376" height="3.498" transform="matrix(1, -0.007, 0.007, 1, 157.911, 93.259)" fill="#fff"/>
    <path id="Tracé_14" data-name="Tracé 14" d="M165.319,93.205l4.316-.032v.268l-3.946.03.009,1.283,3.69-.028,0,.265-3.692.027.011,1.418,4.01-.03,0,.264-4.381.032Z" fill="#fff"/>
    <path id="Tracé_15" data-name="Tracé 15" d="M176.543,93.122l.511,0,3.829,3.177h.007l-.023-3.2.376,0,.027,3.5-.512,0-3.829-3.172h-.008l.024,3.2-.376,0Z" fill="#fff"/>
    <path id="Tracé_16" data-name="Tracé 16" d="M188.228,94.788c-.008-1.145,1.052-1.884,2.739-1.9a2.732,2.732,0,0,1,2.549,1.2l-.336.112a2.329,2.329,0,0,0-2.212-1.04c-1.455.011-2.371.641-2.364,1.626s1.015,1.6,2.591,1.589a2.517,2.517,0,0,0,2.462-1.278l.353.092a2.882,2.882,0,0,1-2.813,1.449c-1.806.013-2.961-.7-2.97-1.849" fill="#fff"/>
    <path id="Tracé_17" data-name="Tracé 17" d="M200.943,92.942l4.316-.031v.268l-3.946.028.009,1.283,3.69-.027,0,.264-3.692.027.011,1.418,4.01-.03,0,.264-4.381.032Z" fill="#fff"/>
    <g id="Groupe_19" data-name="Groupe 19">
      <path id="Tracé_1" data-name="Tracé 1" d="M167.943,58.166a19.742,19.742,0,0,1-5.28,3.674,17.911,17.911,0,0,1-17.525-1.492,20.543,20.543,0,0,1-6.649-8.494,38.6,38.6,0,0,1-3.29-14.005,49.262,49.262,0,0,1,.606-8.431c.3-2.151,1.149-12.836,7.727-15.477,5.2-2.088,10.082-.853,13.219,8.957-.03-.023.249-8.8-2.615-11.628-.03-.028-1.158-1.31-1.188-1.34-4.534-4.381-13.663-4.855-18.563-.893-3.233,2.615-4.439,3.7-6.149,7.018-3.572,6.921-4.634,13.279-4.452,22.181a36.442,36.442,0,0,0,2.35,12.582,31.087,31.087,0,0,0,5.775,9.66,25.289,25.289,0,0,0,18.868,8.365,23.974,23.974,0,0,0,13.745-4.086A7.936,7.936,0,0,0,167.943,58.166Z" fill="#f3cf92"/>
      <path id="Tracé_18" data-name="Tracé 18" d="M199.965,5.531a5.854,5.854,0,0,0-5.2,2.574,11.366,11.366,0,0,0-2.228,5.828.161.161,0,0,0-.026,0l-.231,2.469a65.433,65.433,0,0,1-1.273,8.807,61.4,61.4,0,0,1-2.723,9.372,20.858,20.858,0,0,1-4.435,7.317q-2.707,2.768-5.758,2.207-3.735-.689-6.258-6.369a42.6,42.6,0,0,1-3.108-14.121c-.05-8.679-.347-18.1-16.8-18.1a16.282,16.282,0,0,1,7.565,5.949c2.028,3.23,1.981,9.127,1.984,9.736,0,0,.137,2.1.145,2.148v.02h0a37.566,37.566,0,0,0,5.644,15.053,16.976,16.976,0,0,0,8.231,6.91l.091,14.359a10.517,10.517,0,0,0,2.071,6.483,6.08,6.08,0,0,0,5.065,2.667l4.788-.039-.005-.813q-3.54.028-3.565-4.17l-.114-17.961q4.886-1.234,9.088-6.256,6.549-7.838,7.719-21.676l.63-6.906c.1-3.015,1.118-4.451,3.5-4.291l.031-.875Z" fill="#f3cf92"/>
      <path id="Tracé_19" data-name="Tracé 19" d="M89.635,52.683,89.4,20.864a11.093,11.093,0,0,0-.273-2.777,2.747,2.747,0,0,0-1.207-1.506,7.13,7.13,0,0,0-2.967-.862l-.005-.758a10.7,10.7,0,0,0,4.779-1.3q2.506-1.279,5.081-2.688a16.23,16.23,0,0,1,4.584-1.8l.4,54.8q.028,3.917,4.311,3.883l.005.758-5.793.043a8.334,8.334,0,0,1-7.144-3.683,8.122,8.122,0,0,1-1.485-4.719l-.028-3.908A29.087,29.087,0,0,1,81.415,65.5a19.322,19.322,0,0,1-11.188,3.366,19.312,19.312,0,0,1-13.641-5.014Q51,58.777,50.935,49.18l-.22-30.052c0-.582.06-6.221-2.719-9.308C44.353,5.774,37.629,4.133,37.629,4.133c23.253,0,23.124,9.576,23.185,18.078L60.991,46.2a23.375,23.375,0,0,0,1.639,8.889A13.989,13.989,0,0,0,66.7,60.869a12.387,12.387,0,0,0,5.687,2.485,12.788,12.788,0,0,0,6.3-.489,17.519,17.519,0,0,0,6.02-3.643,21.709,21.709,0,0,0,4.928-6.539" fill="#f3cf92"/>
      <path id="Tracé_20" data-name="Tracé 20" d="M36.027,6.9l.245,33.819a42.56,42.56,0,0,1-.486,7.861,43.264,43.264,0,0,1-2.17,8.6,18.567,18.567,0,0,1-4.476,7.1,9.435,9.435,0,0,1-6.682,2.89q-4.588.032-8.306-4.471A28.86,28.86,0,0,1,8.691,50.83L0,51.621A28.854,28.854,0,0,0,8.726,64.066a20.739,20.739,0,0,0,13.744,4.793,22.444,22.444,0,0,0,17.33-8.1q7.067-8.028,6.734-20.475l0-19.815A14.012,14.012,0,0,0,36.027,6.9Z" fill="#f3cf92"/>
      <path id="Tracé_21" data-name="Tracé 21" d="M112.268,13.095c-1.465,1.692-3.314,2.469-5.566,1.3a2.663,2.663,0,0,1-1.141-3.585,8.6,8.6,0,0,1,11.6-3.712l2.651,1.371-1.321.49a15.124,15.124,0,0,0-6.227,4.132" fill="#efd7b4"/>
      <path id="Tracé_22" data-name="Tracé 22" d="M124.425,68.018q-4.413.032-4.439-3.9L119.6,10.936l-.7.261A13.855,13.855,0,0,0,113.136,15a5.751,5.751,0,0,1-4.232,2.249,7.314,7.314,0,0,1,.685,3.578l.317,43.362q.028,3.935-4.255,3.962l.007.762,18.77-.139Z" fill="#f3cf92"/>
      <path id="Tracé_23" data-name="Tracé 23" d="M115.1,4.085a2.505,2.505,0,0,1-2.44-2.334,1.57,1.57,0,0,1,1.4-1.724,5.086,5.086,0,0,1,5.578,4.545l.181,1.756-.669-.5A8.914,8.914,0,0,0,115.1,4.085" fill="#eee8df"/>
      <path id="Tracé_24" data-name="Tracé 24" d="M108.59,4.37a1.689,1.689,0,0,1-2.251-.364,1.064,1.064,0,0,1,.121-1.5A3.431,3.431,0,0,1,111.3,2.9l.771.909-.562-.02a6.026,6.026,0,0,0-2.923.579" fill="#fff"/>
    </g>
  </g>
</svg>
